<svg width="137" height="350" viewBox="0 0 137 350" fill="none" xmlns="http://www.w3.org/2000/svg">
<g opacity="0.03">
<path fill-rule="evenodd" clip-rule="evenodd" d="M147.077 0C180.492 0 212.936 11.2746 238.517 31.7494V31.7486C271.932 58.4781 291.586 96.484 293.964 138.739C296.24 180.457 280.638 221.273 251.173 250.714L153.502 347.033C149.718 350.78 143.156 350.746 139.373 346.999L43.0813 250.783C13.5501 221.275 -2.08611 180.426 0.224142 138.74C2.56757 96.4865 22.2553 58.4807 55.6367 31.7494C81.1839 11.2746 113.662 0 147.077 0ZM65.4521 143.874C65.4521 180.04 94.8821 209.448 131.077 209.448C167.27 209.448 196.735 180.041 196.701 143.874C196.701 107.709 167.271 78.3013 131.077 78.3013C94.883 78.3013 65.4521 107.708 65.4521 143.874Z" fill="white"/>
<path d="M131.077 111.913C113.432 111.913 99.101 126.232 99.101 143.863C99.101 161.495 113.432 175.814 131.077 175.814C148.722 175.814 163.052 161.495 163.052 143.863C163.052 126.232 148.722 111.913 131.077 111.913Z" fill="white"/>
</g>
</svg>
