<svg width="79" height="16" viewBox="0 0 79 16" fill="none" xmlns="http://www.w3.org/2000/svg">
<path d="M0.267432 15C0.200765 15 0.167432 14.9667 0.167432 14.9L0.207432 1.16C0.207432 1.10667 0.234098 1.08 0.287432 1.08L4.02743 1.06C4.76077 1.04667 5.42743 1.22 6.02743 1.58C6.64077 1.94 7.12743 2.42667 7.48743 3.04C7.84743 3.64 8.02743 4.30667 8.02743 5.04V10.78C8.02743 11.5533 7.84077 12.26 7.46743 12.9C7.0941 13.5267 6.5941 14.0267 5.96743 14.4C5.34077 14.7733 4.6341 14.9667 3.84743 14.98L0.267432 15ZM2.60743 12.54H3.84743C4.34077 12.54 4.7541 12.3667 5.08743 12.02C5.4341 11.6733 5.60743 11.26 5.60743 10.78V5.02C5.60743 4.59333 5.44743 4.22667 5.12743 3.92C4.82077 3.6 4.4541 3.44667 4.02743 3.46L2.62743 3.48L2.60743 12.54ZM9.68103 15C9.62769 15 9.60103 14.9667 9.60103 14.9L9.64103 1.16C9.64103 1.10667 9.66769 1.08 9.72103 1.08H13.761C14.481 1.08 15.141 1.26 15.741 1.62C16.3544 1.96667 16.841 2.44 17.201 3.04C17.561 3.62667 17.741 4.29333 17.741 5.04C17.741 5.53333 17.6677 5.98 17.521 6.38C17.3744 6.76667 17.201 7.1 17.001 7.38C16.801 7.64667 16.621 7.84667 16.461 7.98C17.181 8.78 17.541 9.72 17.541 10.8L17.561 14.9C17.561 14.9667 17.5277 15 17.461 15H15.201C15.1477 15 15.121 14.98 15.121 14.94V10.8C15.121 10.32 14.9477 9.90667 14.601 9.56C14.2677 9.2 13.8544 9.02 13.361 9.02H12.041L12.021 14.9C12.021 14.9667 11.9944 15 11.941 15H9.68103ZM12.041 6.62H13.761C14.1744 6.62 14.541 6.46667 14.861 6.16C15.181 5.85333 15.341 5.48 15.341 5.04C15.341 4.61333 15.181 4.24667 14.861 3.94C14.5544 3.63333 14.1877 3.48 13.761 3.48H12.041V6.62ZM19.3495 15C19.2828 15 19.2495 14.9667 19.2495 14.9L19.2695 1.16C19.2695 1.10667 19.2961 1.08 19.3495 1.08H21.5895C21.6428 1.08 21.6695 1.10667 21.6695 1.16L21.6895 14.9C21.6895 14.9667 21.6628 15 21.6095 15H19.3495ZM25.6887 15C25.6353 15 25.602 14.9667 25.5887 14.9L22.8287 1.16C22.8153 1.10667 22.842 1.08 22.9087 1.08H25.1687C25.222 1.08 25.2553 1.10667 25.2687 1.16L26.9087 10.32L28.5087 1.16C28.522 1.10667 28.5553 1.08 28.6087 1.08H30.8487C30.9153 1.08 30.942 1.10667 30.9287 1.16L28.2087 14.9C28.1953 14.9667 28.162 15 28.1087 15H25.6887ZM32.181 15C32.1277 15 32.101 14.9667 32.101 14.9L32.121 1.16C32.121 1.10667 32.1477 1.08 32.201 1.08H38.621C38.6744 1.08 38.701 1.11333 38.701 1.18V3.42C38.701 3.47333 38.6744 3.5 38.621 3.5H34.521V6.62H38.621C38.6744 6.62 38.701 6.64667 38.701 6.7L38.721 8.96C38.721 9.01333 38.6944 9.04 38.641 9.04H34.521V12.54H38.641C38.6944 12.54 38.721 12.5733 38.721 12.64V14.92C38.721 14.9733 38.6944 15 38.641 15H32.181ZM43.5482 15C43.4949 15 43.4682 14.9667 43.4682 14.9L43.5082 1.16C43.5082 1.10667 43.5349 1.08 43.5882 1.08H46.0282C46.0815 1.08 46.1282 1.10667 46.1682 1.16L47.9882 3.8L49.8082 1.16C49.8482 1.10667 49.8949 1.08 49.9482 1.08H52.4082C52.4615 1.08 52.4882 1.10667 52.4882 1.16L52.5282 14.9C52.5282 14.9667 52.5015 15 52.4482 15H50.1882C50.1349 15 50.1082 14.9667 50.1082 14.9L50.0882 4.7L47.9882 7.74L45.9082 4.7L45.8882 14.9C45.8882 14.9667 45.8615 15 45.8082 15H43.5482ZM57.9104 15.2C57.1904 15.2 56.5304 15.02 55.9304 14.66C55.3437 14.2867 54.8704 13.8 54.5104 13.2C54.1504 12.5867 53.9704 11.9133 53.9704 11.18L53.9904 4.84C53.9904 4.10667 54.1637 3.44 54.5104 2.84C54.8704 2.24 55.3504 1.76 55.9504 1.4C56.5504 1.04 57.2037 0.86 57.9104 0.86C58.6304 0.86 59.2837 1.04 59.8704 1.4C60.4571 1.76 60.9237 2.24 61.2704 2.84C61.6304 3.44 61.8104 4.10667 61.8104 4.84L61.8304 11.18C61.8304 11.9133 61.6504 12.5867 61.2904 13.2C60.9437 13.8 60.4704 14.2867 59.8704 14.66C59.2837 15.02 58.6304 15.2 57.9104 15.2ZM57.9104 12.78C58.3104 12.78 58.6571 12.62 58.9504 12.3C59.2571 11.9667 59.4104 11.5933 59.4104 11.18L59.3904 4.84C59.3904 4.4 59.2504 4.02667 58.9704 3.72C58.6904 3.41333 58.3371 3.26 57.9104 3.26C57.4971 3.26 57.1437 3.41333 56.8504 3.72C56.5571 4.01333 56.4104 4.38667 56.4104 4.84V11.18C56.4104 11.62 56.5571 12 56.8504 12.32C57.1437 12.6267 57.4971 12.78 57.9104 12.78ZM65.0971 15C65.0438 15 65.0171 14.9667 65.0171 14.9V3.5H62.4171C62.3505 3.5 62.3171 3.46667 62.3171 3.4L62.3371 1.16C62.3371 1.10667 62.3638 1.08 62.4171 1.08H70.0171C70.0838 1.08 70.1171 1.10667 70.1171 1.16V3.4C70.1171 3.46667 70.0905 3.5 70.0371 3.5H67.4171L67.4371 14.9C67.4371 14.9667 67.4105 15 67.3571 15H65.0971ZM74.3557 15.2C73.6357 15.2 72.9757 15.02 72.3757 14.66C71.789 14.2867 71.3157 13.8 70.9557 13.2C70.5957 12.5867 70.4157 11.9133 70.4157 11.18L70.4357 4.84C70.4357 4.10667 70.609 3.44 70.9557 2.84C71.3157 2.24 71.7957 1.76 72.3957 1.4C72.9957 1.04 73.649 0.86 74.3557 0.86C75.0757 0.86 75.729 1.04 76.3157 1.4C76.9024 1.76 77.369 2.24 77.7157 2.84C78.0757 3.44 78.2557 4.10667 78.2557 4.84L78.2757 11.18C78.2757 11.9133 78.0957 12.5867 77.7357 13.2C77.389 13.8 76.9157 14.2867 76.3157 14.66C75.729 15.02 75.0757 15.2 74.3557 15.2ZM74.3557 12.78C74.7557 12.78 75.1024 12.62 75.3957 12.3C75.7024 11.9667 75.8557 11.5933 75.8557 11.18L75.8357 4.84C75.8357 4.4 75.6957 4.02667 75.4157 3.72C75.1357 3.41333 74.7824 3.26 74.3557 3.26C73.9424 3.26 73.589 3.41333 73.2957 3.72C73.0024 4.01333 72.8557 4.38667 72.8557 4.84V11.18C72.8557 11.62 73.0024 12 73.2957 12.32C73.589 12.6267 73.9424 12.78 74.3557 12.78Z" fill="#2F3035"/>
</svg>
